<svg width="28" height="28" viewBox="0 0 28 28" fill="none" xmlns="http://www.w3.org/2000/svg">
<path d="M8.16671 14C8.16671 14.6443 7.64437 15.1667 7.00004 15.1667C6.35571 15.1667 5.83337 14.6443 5.83337 14C5.83337 13.3557 6.35571 12.8333 7.00004 12.8333C7.64437 12.8333 8.16671 13.3557 8.16671 14Z" fill="#777777"/>
<path d="M15.1667 14C15.1667 14.6443 14.6444 15.1667 14 15.1667C13.3557 15.1667 12.8334 14.6443 12.8334 14C12.8334 13.3557 13.3557 12.8333 14 12.8333C14.6444 12.8333 15.1667 13.3557 15.1667 14Z" fill="#777777"/>
<path d="M21 15.1667C21.6444 15.1667 22.1667 14.6443 22.1667 14C22.1667 13.3557 21.6444 12.8333 21 12.8333C20.3557 12.8333 19.8334 13.3557 19.8334 14C19.8334 14.6443 20.3557 15.1667 21 15.1667Z" fill="#777777"/>
</svg>
