<svg width="32" height="32" viewBox="0 0 32 32" fill="none" xmlns="http://www.w3.org/2000/svg">
<path d="M23.5 20.6154V20.8343L23.6609 20.9828L26.1667 23.2958V23.8077H5.83337V23.2958L8.33918 20.9828L8.50004 20.8343V20.6154V14.4615C8.50004 10.8746 10.5389 7.95188 14.1069 7.17153L14.5 7.08554V6.68308V5.84615C14.5 5.13769 15.1311 4.5 16 4.5C16.869 4.5 17.5 5.13769 17.5 5.84615V6.68308V7.08524L17.8929 7.17145C21.4482 7.95175 23.5 10.8873 23.5 14.4615V20.6154ZM18.0936 26.0385C17.8505 26.8571 17.027 27.5 16 27.5C14.9632 27.5 14.146 26.8579 13.9056 26.0385H18.0936Z" stroke="#777777"/>
</svg>
